# xmcd CD database file
#
# Track frame offsets:
#	150
#	39903
#	72225
#	110128
#	141339
#	182839
#	217749
#	256305
#
# Disc length: 3965 seconds
#
# Revision: 1
# Processed by: cddbd v1.5PL3 Copyright (c) Steve Scherf et al.
# Submitted via: Feurio! 1.67 - http://www.feurio.com
#
DISCID=730f7b08
DTITLE=Various Artist - Fusion - Progressive Trance
DYEAR=2003
DGENRE=Trance
TTITLE0=Beat Bizarre - Terra Byte
TTITLE1=Phony Orphants - Dead Expressing
TTITLE2=Echotek - 2 The Moon
TTITLE3=Fabel - Just Beat It
TTITLE4=Reefer Decree - Curved Air(filur remix)
TTITLE5=Oryx - This Goes Back
TTITLE6=Frogacult - Femme Fatale
TTITLE7=Antix - Free As We Are
EXTD=YEAR: 2003
EXTT0=
EXTT1=
EXTT2=
EXTT3=
EXTT4=
EXTT5=
EXTT6=
EXTT7=
PLAYORDER=
